<?xml version="1.0" encoding="UTF-8"?>
<svg id="_レイヤー_3" data-name="レイヤー 3" xmlns="http://www.w3.org/2000/svg" xmlns:xlink="http://www.w3.org/1999/xlink" viewBox="0 0 1190.55 841.89">
  <defs>
    <style>
      .cls-1 {
        fill: #fff;
      }

      .cls-2 {
        fill: none;
      }

      .cls-3 {
        clip-path: url(#clippath-1);
      }

      .cls-4 {
        isolation: isolate;
      }
    </style>
    <clipPath id="clippath-1">
      <path class="cls-2" d="M618.24,670.64c-7.17.59-16.76.96-23.95,1.13-3.72.09-8.69-.04-12.41-.27-8.14-.51-18.98-1.6-27.07-2.67-5.22-.69-12.09-2.21-17.26-3.22-7.86-1.54-18.12-4.58-25.72-7.1-7.78-2.58-21.87-7.62-38.57-16.32-8.11-4.22-20.69-11.29-34.89-21.8-4.94-3.66-17.65-13.29-30.96-26.91-3.82-3.91-14.93-15.31-26.5-31.65-10.38-14.66-16.07-25.47-21.43-36.04-5.58-10.98-11.51-26.39-15.13-38.17s-7.23-28.87-9.23-41.45c-1-6.31-1.96-14.8-2.07-21.18s-.36-14.4-.34-20.57.68-14.62,1.33-20.86c3.43-32.95,12.58-59.67,20.91-78.54,7.05-15.96,14.32-28.09,19.15-35.63,9.55-14.91,18.63-25.74,24.16-32,4.66-5.28,11.12-12.1,16.3-16.87,6.64-6.12,15.9-13.86,23.04-19.39,5.11-3.96,12.3-8.76,17.79-12.17,8.12-5.04,15.27-8.86,19.83-11.18,9.92-5.04,16.34-7.72,21.59-9.83,9.27-3.74,18.7-6.72,21.28-7.47.84-.24,1.95-.58,2.79-.83s1.97-.56,2.82-.8,2.06-.57,2.95-.81c1.38-.37,5.59-1.48,9.73-2.4,8.67-1.93,13.15-2.65,18.33-3.47.67-.11,6.77-1.07,14.99-1.85-17.43,1.64-34.9,5.94-52.05,13.1,17.15-7.17,34.61-11.47,52.05-13.1h0c7.79-.53,18.19-1.16,25.99-1.1,4.06.03,9.47.3,13.53.44,7.78.25,18.17,1.29,25.81,2.77,5.43,1.05,12.72,2.24,18.1,3.55,6.83,1.66,15.91,4.04,22.56,6.34,5.51,1.9,12.84,4.51,18.22,6.77,6,2.52,13.98,5.97,19.67,9.12,5.19,2.88,12.19,6.59,17.24,9.71,5.38,3.32,12.39,8,17.49,11.73s11.13,8.5,15.69,12.41,10.98,9.68,15.32,14.2,9.78,10.26,13.71,14.88,9.37,11.34,12.95,16.52c7.05,10.2,15.75,24.32,21.42,35.35,7.93,15.43,12.62,29.55,16.05,39.86,2.08,6.24,4.2,14.76,5.64,21.17,2.61,11.62,4.9,27.4,5.65,39.29.63,10.02,1.08,23.95-.57,41.48-3.1,33-11.99,59.82-20.14,78.78-12.62,29.34-28.59,51.82-42.68,68.09-4.57,5.28-10.91,12.13-16.01,16.9-6.74,6.32-16.12,14.32-23.37,20.04-4.92,3.88-11.83,8.59-17.12,11.94-2.01,1.27-4.69,2.96-6.76,4.15-4.02,2.32-9.39,5.4-13.52,7.52-7.58,3.9-14.14,7.06-23.42,10.79-11.19,4.5-20.54,7.26-24.07,8.3-2.03.6-6.29,1.81-12.07,3.21-6.04,1.46-11.25,2.45-11.47,2.49-1.67.32-6.76,1.28-10.43,1.8-3.42.49-9.8,1.41-14.84,1.82Z"/>
    </clipPath>
  </defs>
  <g class="cls-4">
    <g class="cls-4">
      <g class="cls-3">
        <g>
          <path class="cls-1" d="M467.27,225.89c-10.33,21.8-25.73,29.47-28.47,21.38-3.92-11.57,20.28-39.83,31.28-42.83,7.54-.56-2.7,21.23-2.81,21.45"/>
          <path class="cls-1" d="M628.8,170.68c17.75,6.35,23.76,14.79,17.28,18.09-1.95.99-9.87,3.66-29.86-3.7-11.78-4.34-32.67-15.79-31.72-18.98.11-.37.59-.68.91-.9,6.15-2.31,27.39-.23,43.39,5.5"/>
          <path class="cls-1" d="M401.41,304.25c-8.08,22.45-22.4,32.78-26.79,23.81-6.31-12.88,12.11-50.26,25.94-52.63,8,.47,4.77,17.93.85,28.82"/>
          <path class="cls-1" d="M600.6,185.02c1.69,1.12,3.91,2.72,5.31,4.19,4.57,4.77,5.55,7.4,6,11.48.79,7.1,6.24,12.58,10.67,15.93,7.61,5.75,17.1,8.73,23.66,16.03,2.43,2.71,4.92,6.98,6.41,10.3,3.88,8.67,1.07,22.65-14.31,26.36-14.64,3.53-26.85-10.01-41.56-5.91-.01,0-.02,0-.04.01-5.96,2.52-8.79,5.71-10.82,12.21-6.49,20.75-26.69,17.83-26.89,17.79-22.31-4.31-27.02-27.31-20.46-41.25,1.6-3.41,10.68-19.84,31.93-8.78,5.64,2.93,9.81,3.45,15.4,1.89.03,0,.05-.02.08-.03s.05-.02.08-.03.05-.02.08-.03.05-.02.08-.03.05-.02.08-.03.05-.02.08-.03.05-.02.08-.03.05-.02.08-.03c12.25-5.86,13.85-26.97-6.17-36.64-18.18-8.78-30.97-28.39-22.07-33.85,12.67-2.98,33.06,4.28,42.32,10.44"/>
          <path class="cls-1" d="M724.23,197.85c14.63,10.44,20.25,21.17,11.79,22.5-4.1.65-9.7-1.44-13.05-2.69-13.27-4.95-18.41-2.16-20.39,1.06-2.25,3.67.89,8.43-2.4,11.89-1.43,1.51-4.45,3.05-10.65,1.83-14.26-2.81-29.87-19.57-24.21-26,2.52-2.86,8.05-1.88,9.87-1.56,6.02,1.06,10.36.86,12.89-.6,2.64-1.52,4.57-4.72-1.18-11.35-4.6-5.29-5.48-7.6-3.63-9.52,9.7-3.54,31.47,7.66,40.97,14.45"/>
          <path class="cls-1" d="M384.75,390.59c-2.04,25.01-16.05,40.44-25.85,28.46-12.02-14.69-6.1-61.65,12.05-64.35,11.47.74,14.97,21.43,13.8,35.89"/>
          <path class="cls-1" d="M511.09,281.18c-.53,12.55-7.57,20.12-7.87,20.44-8.03,8.49-16.39,11.11-24.87,7.79-8.28-3.24-16.25-1.42-23.66,5.4-9.01,8.3-16.4,24.36-12.58,41.55.39,1.75,3.43,17.4-9.11,28.95-3.14,2.89-12.24,6.48-18.81-1.71-1.8-2.24-4.78-7.29-4.52-15.93.02-.49.05-1.14.1-1.62,1.28-12.26,8.14-23.24,8.23-35.78.07-10.31-3.99-20.46-1.2-30.87,4.68-17.48,18.62-33.4,28.69-32.75,6.4.41,9.82,8.58,17.14,6.58,10.98-3,15.64-15,26.31-18.44,19.43-2.39,22.42,20.2,22.15,26.38"/>
          <path class="cls-1" d="M759.2,274.07c13.4,20.72,5.85,40.72-13.93,36.9-25.37-4.91-45.22-44.31-28.31-56.21.51-.36,1.25-.74,1.78-1.05,14.97-5.95,32.67,8.33,40.46,20.37"/>
          <path class="cls-1" d="M548.45,450.98c1.17,11.15-4.92,20.27-8.44,22.68-1.19.82-2.7,2.06-4,2.69-13.66,6.56-25.98-4.84-39.3-2.94-23.32,3.32-19.94,33.04-39.56,40.02-21.13,7.52-32.22-17.98-51.74-15.75-10.26,1.17-8.67,16.76-20.1,16.51-2.38-.05-5.55-1.2-7.54-2.51-19.2-12.6-31.07-65.91-10.03-67.86,12.99-1.2,17.31,16.87,31.07,13.97,4.6-.97,8.89-4.98,12.75-11.93,5.03-9.05,10.04-13.06,19.16-15.34,21.52-2.43,34,25.14,57.18,17.22,13.15-4.49,17.66-21.74,33.3-22.56,1.45-.08,3.39.1,4.82.34,11.48,2,21.13,12.94,22.44,25.45"/>
          <path class="cls-1" d="M422.42,565.19c6.15,10.88,4.92,18.74-2.63,16.82-14.56-3.71-33.33-32.69-24.19-37.36.55-.28,1.4-.4,2.02-.48,9.18.48,20.03,12.58,24.8,21.02"/>
          <path class="cls-1" d="M695.73,303.22c-6.81-14.85-25.39-25.7-42.21-18.18-10.65,6.23-12.07,20.66-23.36,26.32-5.51,2.76-14.75,4.85-27.47-.86,15.51,10,21.57,25.99,16.2,42.78,8.54-17.53,24.71-23.68,43.26-16.44,25.76,10.05,43.27-12.51,33.59-33.63M589.02,305.83s-.06,0-.09-.01c.03,0,.06,0,.09.01,0,0,0,0,0,0M589.12,305.84s-.06,0-.09-.01c.03,0,.06,0,.09.01,0,0,0,0,0,0M588.45,305.77s0,0,.01,0c-.14-.01-.28-.03-.42-.04,0,0,0,0,.01,0,.13.01.26.02.4.04M587.79,305.72c-.21-.02-.41-.03-.62-.04.21.01.42.03.64.04,0,0-.01,0-.02,0M573.91,307.99s0,0,0,0c0,0,0,0,0,0,0,0-.01,0-.02,0,0,0,.01,0,.02,0M574.66,307.68s-.1.04-.15.06c.05-.02.1-.04.16-.06,0,0,0,0,0,0M575.16,307.48s0,0,.01,0c0,0,0,0-.01,0M575.17,307.48s0,0,.01,0c0,0,0,0-.01,0M575.18,307.48s0,0,.01,0c0,0,0,0-.01,0M575.19,307.47s0,0,.01,0c0,0,0,0-.01,0M575.2,307.47s0,0,.01,0c0,0,0,0-.01,0M575.21,307.47s0,0,.01,0c0,0,0,0-.01,0M575.22,307.46s0,0,.01,0c0,0,0,0-.01,0M575.23,307.46s0,0,.01,0c0,0,0,0-.01,0M575.25,307.45s0,0-.01,0c0,0,0,0,.01,0M575.26,307.45s0,0-.01,0c0,0,0,0,.01,0M575.26,307.45s0,0,.01,0c0,0,0,0-.01,0M575.27,307.44s0,0,.01,0c0,0,0,0-.01,0M575.28,307.44s0,0,.01,0c0,0,0,0-.01,0M575.29,307.44s0,0,.01,0c0,0,0,0-.01,0M575.31,307.43s0,0-.01,0c0,0,0,0,.01,0M575.32,307.42s0,0-.01,0c0,0,0,0,.01,0M575.32,307.42s0,0,.01,0c0,0,0,0-.01,0M575.33,307.42s0,0,.01,0c0,0,0,0-.01,0M575.34,307.42s0,0,.01,0c0,0,0,0-.01,0M575.35,307.41s0,0,.01,0c0,0,0,0-.01,0M575.36,307.41s0,0,.01,0c0,0,0,0-.01,0M575.38,307.4s0,0-.01,0c0,0,0,0,.01,0M575.39,307.4s0,0-.01,0c0,0,0,0,.01,0M575.39,307.4s0,0,.01,0c0,0,0,0-.01,0M575.4,307.4s0,0,.01,0c0,0,0,0-.01,0M575.41,307.39s0,0,.01,0c0,0,0,0-.01,0M575.42,307.39s0,0,.01,0c0,0,0,0-.01,0M575.44,307.38s0,0-.01,0c0,0,0,0,.01,0M575.44,307.38s0,0,.01,0c0,0,0,0-.01,0M575.46,307.37s0,0-.01,0c0,0,0,0,.01,0M575.46,307.37s0,0,.01,0c0,0,0,0-.01,0M575.47,307.37h.01s0,0-.01,0M586.86,305.66c.09,0,.22.01.31.02-3.46-.18-6.6.17-9.88,1.1.09-.03.21-.06.31-.09,1.13-.31,4.59-1.25,9.27-1.03M576.52,307.01s.02,0,.02,0c0,0-.02,0-.02,0-.23.07-.45.15-.68.23.23-.08.45-.15.68-.23M557.63,325.13c.36-.89.93-2.03,1.33-2.9-9.56,14.52-25.41,18.7-39.46,10.4-8.6-5.08-15.22-5.87-24.44-2.91-29.05,12.99-29.75,59.49-1.04,69.1,3.65,1.22,22.54,6.22,36.36-15.36,9.91-15.48,25.2-20.5,41.95-13.77-24.26-17.09-16.51-40.12-14.71-44.56"/>
          <path class="cls-1" d="M619.48,331.75c5.66,18.71-8.56,39,4.55,57.12,4.95,6.84,13.1,10.49,17.72,17.66,5.3,8.22,5.68,14.52,5.96,19.11.29,4.76-1.07,10.37-4.06,16.67-12.35,26.13,4.19,42.9,6.12,44.73q16.59,15.73,15.07,25.62c-2.38,15.51-19.47,24.7-33.24,17.87-5.08-2.52-8.64-7.47-9.2-8.65-.58-1.22-1.28-2.87-1.8-4.11-1.09-2.61-1.74-8.9.34-14.11,4.93-12.38,4.25-23.81-2.03-33.97-9.17-14.83-29.6-19.61-34.28-38.44-4.35-17.49,8.39-36.2-3.82-53.12-5.22-7.23-13.9-10.85-19.03-18.17-3.98-5.67-6.23-11.88-6.68-18.46-1.07-15.61,7.56-29.74,21-34.37.13-.05.31-.1.44-.14,20.19-5.66,38.01,8.44,42.95,24.75"/>
          <path class="cls-1" d="M762.69,474.74c-1.85,29.77-34.44,54.92-55.84,35.01-6.14-5.71-7.79-11.64-9.39-17.38-5.16-18.5,12.47-33.37,8.23-51.73-2.32-10.03-9.7-14.52-12.12-16-15.77-9.6-17.74-24.14-17.97-26.96-2.09-25.08,13.17-32.98,18.92-35.96,16.01-4.21,28.36.68,36.71,14.53,1.07,1.77,2.22,4.3,2.85,6.26,5.15,16.11-6.35,32.45.66,48.53,3.42,7.85,8.78,10.63,11.07,11.81,15.11,7.81,17.52,21.65,16.89,31.89"/>
          <path class="cls-1" d="M790.69,252.62c8.86,11.3,12.87,25.16,19.7,37.52,5.12,9.27,13.07,16.55,18.19,25.82,5.17,9.36,7.51,17.26,8.28,20.22,3.66,14.14,1.95,28.78,4.01,43.07,1.33,9.22,5.22,17.81,6.55,27.02.56,3.84.67,6.86.69,7.42.53,16.88-3.74,29.82-7.9,30.12-1.79.13-3.51-2.66-3.93-3.69-7.57-18.44,1.94-37.06-.58-55.55-2.51-18.4-17-31.32-22.15-48.51q-11.11-37.14-17.88-43.01c-5.5-4.77-12.45-7.49-17.79-12.49-3.63-3.4-9.72-9.09-17.42-20.46-3.64-5.37-15.02-23.54-8.74-31.9,12.46-4.84,32.34,15.98,38.95,24.41"/>
          <path class="cls-1" d="M616.37,600.54c5.02,22.41-23.25,32.67-46.53,16.89-1.44-.98-5.82-3.94-9.5-9.49-3.63-5.48-3.3-10.81-3.2-12.57.56-9.05-3.57-16.2-7.12-20.6-1.74-2.15-5.67-6.37-12.44-10.48-6.43-3.9-15.41-10.66-19.04-24.2-1.96-7.31-3.82-25.31,21.22-34.73,22.42-3.4,33.99,6.31,38.89,12.41,2.65,3.29,5.58,8.16,7.33,12,6.27,13.76-4.72,29.39,4.63,42.82,7.31,10.5,22.56,13.68,25.76,27.96"/>
          <path class="cls-1" d="M820.75,443.29c-.46,16.21-11.29,29.27-13.7,44.89-1.55,10.07,3.49,19.76,1.7,29.85-.98,5.5-2.56,9.84-3.41,11.94-8.87,21.77-24.97,37.04-32.49,30.82-2.73-2.26-2.67-6.3-5.43-8.55-1.31-1.07-4.2-1.24-5.97-.73-2.03.59-5.44,1.58-10.09,5.69-4.31,3.81-6.98,9.01-11.05,13.02-8.98,8.87-23.06,11.2-24.69-5.34-.87-8.89,8.63-24.7,21.54-26.68,8.19-1.26,15.03,8.1,23.71,3,11.96-7.04,15.29-20.62,23.3-30.66,9.34-11.7,11.76-27.63,5.51-36.27-9.32-12.91-8.27-44.22,10.56-56.98,17.58-5.7,20.75,16.84,20.49,26"/>
          <path class="cls-1" d="M834.27,508.17c-7.34,19.3-19.1,37.69-21.69,33.91-3.58-5.2,11.28-53.01,23.66-63.52,7.69-4.49,2.41,15.95,2.18,16.82-1.04,3.98-2.44,8.28-4.15,12.78"/>
          <path class="cls-1" d="M543.45,618.17c5.76,7.67,5.16,12.54,4.91,14.62-.79,6.5,7.7,11.34,11.39,13.12,8.63,4.16,18.19,5.91,26.72,10.34,12.23,6.35,12.12,8.77,12.07,9.8-4.02,3.21-21.23,1.25-31.83-.85-1.9-.38-4.41-1-6.28-1.49-15.66-4.15-28.3-15.05-43.82-19.53-6.35-1.83-14.06-3.23-14.73.51-.63,3.54-10.4,1.24-16.4-1.04-29.51-11.22-52.59-32.82-49.79-39.49.59-1.39,3.03-1.94,4.5-2.27,14.42.49,25.04,13.09,39.8,12.48.11-.01.22-.03.33-.04,4.24-.84,5.76-2.48,5.99-6.52.68-11.59,14.56-11.08,16.15-10.99,25.42,1.55,39.47,19.33,40.98,21.35"/>
          <path class="cls-1" d="M736.9,611.93c-3.18,4.66-11.92,14.65-22.25,19.12-6.03,2.61-10.72-4.59-16.71-2.26-10.98,4.59-15.92,18.93-29.97,18.57-12.48-.32-20.23-9.74-16.26-19.76,5.39-13.61,7.2-18.19-3.09-23.63-28.02-14.81-15.87-37.55,4.47-46.09,29.69-6.55,38.11,16.59,27.44,34.04-4.28,7-4.46,13.19-.55,18.41.08.1,8.65,10.12,19.66,7.08.1-.04.21-.07.31-.11,11.86-4.78,16.46-18.76,28.92-22.77,13.48-4.35,13.99,3.95,12.16,9.54-.83,2.53-2.62,5.67-4.12,7.87"/>
        </g>
      </g>
    </g>
  </g>
</svg>