<?xml version="1.0" encoding="UTF-8"?>
<svg id="_レイヤー_3" data-name="レイヤー 3" xmlns="http://www.w3.org/2000/svg" xmlns:xlink="http://www.w3.org/1999/xlink" viewBox="0 0 1190.55 841.89">
  <defs>
    <style>
      .cls-1 {
        font-family: ShipporiMincho-Regular, 'Shippori Mincho';
        font-size: 28.45px;
        letter-spacing: .05em;
      }

      .cls-1, .cls-2 {
        fill: #e61a6a;
      }

      .cls-3 {
        fill: #fff;
      }

      .cls-4 {
        fill: none;
      }

      .cls-5 {
        clip-path: url(#clippath-1);
      }

      .cls-6 {
        isolation: isolate;
      }

      .cls-2 {
        font-family: SitkaText, Sitka;
        font-size: 112.3px;
        font-variation-settings: 'opsz' 11, 'wght' 400;
        letter-spacing: .05em;
      }
    </style>
    <clipPath id="clippath-1">
      <path class="cls-4" d="M204.51,567.29c-3.38.28-7.9.45-11.29.53-1.76.04-4.1-.02-5.85-.13-3.84-.24-8.95-.75-12.76-1.26-2.46-.33-5.7-1.04-8.14-1.52-3.7-.73-8.58-2.06-12.13-3.35-2.96-1.08-6.91-2.5-9.81-3.72-2.56-1.08-5.91-2.69-8.38-3.97-14.48-7.54-24.87-16.65-31.05-22.97-1.84-1.88-7.06-7.24-12.5-14.93-4.89-6.9-7.57-12-10.11-16.99-2.63-5.18-5.43-12.44-7.13-18s-3.41-13.61-4.35-19.54c-.47-2.97-.92-6.98-.97-9.99s-.23-6.79-.16-9.7.32-6.89.62-9.83c1.5-14.48,5.37-26.86,9.86-37.03,6.26-14.16,14.08-24.71,20.42-31.89,10.27-11.64,22.48-21.09,36.28-28.11,4.68-2.38,7.71-3.64,10.18-4.64,4.37-1.76,8.82-3.17,10.03-3.52.88-.26,1.76-.52,2.64-.77.42-.12.97-.27,1.39-.38,2.18-.58,3.7-.93,4.59-1.13,2.17-.48,7.95-1.77,15.71-2.51-8.22.77-16.45,2.8-24.54,6.18,8.08-3.38,16.32-5.41,24.54-6.18,3.67-.25,8.58-.46,12.25-.52,1.91-.03,4.47.14,6.38.21,3.67.12,8.57.61,12.17,1.31,2.56.5,6,1.06,8.53,1.67,3.22.78,7.49,1.95,10.64,2.99,10.02,3.29,17.79,7.45,17.86,7.49,2.45,1.36,5.75,3.11,8.13,4.58,2.53,1.56,5.84,3.77,8.25,5.53,8.56,6.25,14.38,12.29,14.62,12.55,3.76,3.92,7.65,7.98,12.57,14.8,3.42,4.74,7.43,11.47,10.1,16.67,1.4,2.72,3.04,6.45,4.19,9.28s2.37,6.66,3.38,9.51,2.08,6.94,2.66,9.98c1.04,5.52,2.31,12.92,2.66,18.53.3,4.84.5,11.38-.27,19.56-.78,8.27-2.25,14.86-3.31,19.01-2.07,8.1-4.62,14.49-6.19,18.13-5.9,13.71-13.37,24.3-20.12,32.1-2.16,2.49-5.15,5.72-7.55,7.97-3.18,2.98-7.6,6.75-11.02,9.45-2.87,2.26-9.72,7.06-17.63,11.13-3.57,1.84-6.67,3.33-11.04,5.09-5.27,2.12-9.68,3.42-11.35,3.91-11.18,3.3-21.13,4.24-23.01,4.4Z"/>
    </clipPath>
  </defs>
  <g class="cls-6">
    <g class="cls-6">
      <g class="cls-5">
        <g>
          <path class="cls-3" d="M133.33,357.59c-4.87,10.28-12.13,13.89-13.42,10.08-1.85-5.46,9.56-18.78,14.75-20.19,3.56-.27-1.27,10.01-1.32,10.11"/>
          <path class="cls-3" d="M209.49,331.56c8.37,2.99,11.2,6.97,8.15,8.53-.92.47-4.65,1.73-14.08-1.75-5.55-2.05-15.41-7.44-14.96-8.95.05-.17.28-.32.43-.42,2.9-1.09,12.91-.11,20.46,2.59"/>
          <path class="cls-3" d="M102.28,394.54c-3.81,10.58-10.56,15.45-12.63,11.23-2.98-6.07,5.71-23.7,12.23-24.81,3.77.22,2.25,8.45.4,13.59"/>
          <path class="cls-3" d="M196.19,338.32c.8.53,1.84,1.28,2.5,1.97,2.16,2.25,2.62,3.49,2.83,5.41.37,3.35,2.94,5.93,5.03,7.51,3.59,2.71,8.06,4.12,11.16,7.56,1.15,1.28,2.32,3.29,3.02,4.86,1.83,4.09.5,10.68-6.74,12.43-6.9,1.66-12.66-4.72-19.6-2.79,0,0-.01,0-.02,0-2.81,1.19-4.14,2.69-5.1,5.76-3.06,9.78-12.58,8.41-12.68,8.39-10.52-2.03-12.74-12.88-9.65-19.45.76-1.61,5.04-9.36,15.05-4.14,2.66,1.38,4.63,1.63,7.26.89.01,0,.02,0,.04-.01s.02,0,.04-.01.02,0,.04-.01.02,0,.04-.01.02,0,.04-.01.02,0,.04-.01.02,0,.04-.01.02,0,.04-.01c5.78-2.76,6.53-12.72-2.91-17.27-8.57-4.14-14.6-13.39-10.41-15.96,5.97-1.41,15.59,2.02,19.95,4.92"/>
          <path class="cls-3" d="M254.48,344.37c6.9,4.92,9.55,9.98,5.56,10.61-1.93.3-4.58-.68-6.15-1.27-6.26-2.33-8.68-1.02-9.61.5-1.06,1.73.42,3.97-1.13,5.61-.68.71-2.1,1.44-5.02.86-6.72-1.32-14.08-9.23-11.42-12.26,1.19-1.35,3.8-.89,4.66-.74,2.84.5,4.89.41,6.08-.28,1.24-.72,2.16-2.23-.56-5.35-2.17-2.49-2.58-3.59-1.71-4.49,4.57-1.67,14.84,3.61,19.32,6.81"/>
          <path class="cls-3" d="M94.42,435.25c-.96,11.79-7.57,19.07-12.19,13.42-5.67-6.93-2.88-29.07,5.68-30.34,5.41.35,7.06,10.11,6.51,16.92"/>
          <path class="cls-3" d="M153.99,383.66c-.25,5.92-3.57,9.49-3.71,9.64-3.78,4-7.73,5.24-11.72,3.67-3.91-1.53-7.66-.67-11.16,2.55-4.25,3.91-7.73,11.49-5.93,19.59.18.82,1.62,8.21-4.29,13.65-1.48,1.36-5.77,3.05-8.87-.8-.85-1.06-2.26-3.44-2.13-7.51,0-.23.02-.54.05-.77.6-5.78,3.84-10.96,3.88-16.87.03-4.86-1.88-9.65-.57-14.56,2.21-8.24,8.78-15.75,13.53-15.44,3.02.19,4.63,4.04,8.08,3.1,5.18-1.41,7.37-7.07,12.4-8.7,9.16-1.13,10.57,9.52,10.45,12.44"/>
          <path class="cls-3" d="M270.97,380.31c6.32,9.77,2.76,19.2-6.57,17.4-11.96-2.32-21.32-20.89-13.35-26.5.24-.17.59-.35.84-.5,7.06-2.81,15.4,3.93,19.07,9.6"/>
          <path class="cls-3" d="M171.61,463.72c.55,5.26-2.32,9.56-3.98,10.69-.56.39-1.27.97-1.89,1.27-6.44,3.09-12.25-2.28-18.53-1.39-11,1.57-9.4,15.58-18.65,18.87-9.96,3.54-15.19-8.48-24.4-7.43-4.84.55-4.09,7.9-9.48,7.79-1.12-.02-2.62-.57-3.56-1.18-9.05-5.94-14.65-31.08-4.73-31.99,6.12-.57,8.16,7.95,14.65,6.58,2.17-.46,4.19-2.35,6.01-5.62,2.37-4.27,4.73-6.16,9.04-7.23,10.15-1.15,16.03,11.85,26.96,8.12,6.2-2.12,8.33-10.25,15.7-10.63.68-.04,1.6.05,2.27.16,5.41.94,9.96,6.1,10.58,12"/>
          <path class="cls-3" d="M112.19,517.57c2.9,5.13,2.32,8.84-1.24,7.93-6.87-1.75-15.72-15.41-11.41-17.62.26-.13.66-.19.95-.22,4.33.23,9.45,5.93,11.7,9.91"/>
          <path class="cls-3" d="M241.05,394.05c-3.21-7-11.97-12.12-19.9-8.57-5.02,2.94-5.69,9.74-11.02,12.41-2.6,1.3-6.96,2.29-12.95-.4,7.31,4.71,10.17,12.25,7.64,20.17,4.02-8.27,11.65-11.16,20.4-7.75,12.15,4.74,20.4-5.9,15.84-15.85M190.74,395.29s-.03,0-.04,0c.01,0,.03,0,.04,0,0,0,0,0,0,0M190.78,395.29s-.03,0-.04,0c.01,0,.03,0,.04,0,0,0,0,0,0,0M190.47,395.26s0,0,0,0c-.07,0-.13-.01-.2-.02,0,0,0,0,0,0,.06,0,.12.01.19.02M190.16,395.23c-.1,0-.19-.01-.29-.02.1,0,.2.01.3.02,0,0,0,0,0,0M183.61,396.3s0,0,0,0c0,0,0,0,0,0,0,0,0,0-.01,0,0,0,0,0,.01,0M183.96,396.15s-.05.02-.07.03c0,0,0,0,0,0s0,0,0,0,0,0,0,0,0,0,0,0,0,0,0,0,0,0,0,0,0,0,0,0,0,0,0,0c.01,0,.02,0,.04-.01,0,0,0,0,0,0M184.2,396.06s0,0,0,0c0,0,0,0,0,0M184.2,396.06s0,0,0,0c0,0,0,0,0,0M184.21,396.06s0,0,0,0c0,0,0,0,0,0M184.21,396.06s0,0,0,0c0,0,0,0,0,0M184.22,396.06s0,0,0,0c0,0,0,0,0,0M184.22,396.05s0,0,0,0c0,0,0,0,0,0M184.23,396.05s0,0,0,0c0,0,0,0,0,0M184.23,396.05s0,0,0,0c0,0,0,0,0,0M184.24,396.05s0,0,0,0c0,0,0,0,0,0M184.25,396.05s0,0,0,0c0,0,0,0,0,0M184.25,396.05s0,0,0,0c0,0,0,0,0,0M184.25,396.04s0,0,0,0c0,0,0,0,0,0M184.26,396.04s0,0,0,0c0,0,0,0,0,0M184.26,396.04s0,0,0,0c0,0,0,0,0,0M184.27,396.04s0,0,0,0c0,0,0,0,0,0M184.28,396.04s0,0,0,0c0,0,0,0,0,0M184.28,396.04s0,0,0,0c0,0,0,0,0,0M184.28,396.03s0,0,0,0c0,0,0,0,0,0M184.29,396.03s0,0,0,0c0,0,0,0,0,0M184.29,396.03s0,0,0,0c0,0,0,0,0,0M184.3,396.03s0,0,0,0c0,0,0,0,0,0M184.31,396.02s0,0,0,0c0,0,0,0,0,0M184.31,396.02s0,0,0,0c0,0,0,0,0,0M184.31,396.02s0,0,0,0c0,0,0,0,0,0M184.31,396.02s0,0,0,0c0,0,0,0,0,0M184.32,396.02s0,0,0,0c0,0,0,0,0,0M184.32,396.02s0,0,0,0c0,0,0,0,0,0M184.33,396.01s0,0,0,0c0,0,0,0,0,0M184.33,396.01s0,0,0,0c0,0,0,0,0,0M184.34,396.01s0,0,0,0c0,0,0,0,0,0M184.34,396.01s0,0,0,0c0,0,0,0,0,0M184.35,396.01h0s0,0,0,0M189.72,395.2s.1,0,.15,0c-1.63-.08-3.11.08-4.66.52.04-.01.1-.03.14-.04.53-.15,2.16-.59,4.37-.49M184.84,395.84s0,0,.01,0c0,0,0,0-.01,0-.11.03-.21.07-.32.11.11-.04.21-.07.32-.11M175.94,404.38c.17-.42.44-.96.63-1.37-4.51,6.85-11.98,8.82-18.61,4.91-4.05-2.39-7.18-2.77-11.52-1.37-13.7,6.13-14.03,28.05-.49,32.58,1.72.58,10.63,2.93,17.14-7.24,4.67-7.3,11.88-9.66,19.78-6.49-11.44-8.06-7.79-18.91-6.94-21.01"/>
          <path class="cls-3" d="M205.1,407.51c2.67,8.82-4.04,18.39,2.15,26.93,2.34,3.23,6.18,4.94,8.35,8.33,2.5,3.88,2.68,6.84,2.81,9.01.14,2.24-.51,4.89-1.91,7.86-5.82,12.32,1.98,20.23,2.88,21.09q7.82,7.42,7.11,12.08c-1.12,7.31-9.18,11.65-15.67,8.43-2.39-1.19-4.07-3.52-4.34-4.08-.27-.57-.6-1.35-.85-1.94-.51-1.23-.82-4.2.16-6.65,2.33-5.84,2-11.23-.96-16.02-4.32-6.99-13.96-9.25-16.16-18.12-2.05-8.25,3.96-17.07-1.8-25.05-2.46-3.41-6.55-5.11-8.97-8.57-1.88-2.67-2.94-5.6-3.15-8.7-.51-7.36,3.56-14.02,9.9-16.2.06-.02.15-.05.21-.07,9.52-2.67,17.92,3.98,20.25,11.67"/>
          <path class="cls-3" d="M272.62,474.92c-.87,14.04-16.24,25.9-26.33,16.5-2.89-2.69-3.67-5.49-4.43-8.2-2.43-8.72,5.88-15.74,3.88-24.39-1.09-4.73-4.57-6.85-5.72-7.55-7.43-4.53-8.36-11.38-8.47-12.71-.99-11.82,6.21-15.55,8.92-16.95,7.55-1.98,13.37.32,17.31,6.85.5.83,1.05,2.03,1.34,2.95,2.43,7.6-2.99,15.3.31,22.88,1.61,3.7,4.14,5.01,5.22,5.57,7.12,3.68,8.26,10.21,7.96,15.04"/>
          <path class="cls-3" d="M285.82,370.19c4.18,5.33,6.07,11.86,9.29,17.69,2.42,4.37,6.16,7.8,8.58,12.17,2.44,4.41,3.54,8.14,3.9,9.53,1.73,6.67.92,13.57,1.89,20.31.63,4.35,2.46,8.4,3.09,12.74.26,1.81.32,3.23.33,3.5.25,7.96-1.76,14.06-3.73,14.2-.84.06-1.65-1.25-1.85-1.74-3.57-8.7.92-17.47-.27-26.19-1.18-8.67-8.02-14.77-10.44-22.87q-5.24-17.51-8.43-20.28c-2.59-2.25-5.87-3.53-8.39-5.89-1.71-1.6-4.58-4.29-8.21-9.65-1.72-2.53-7.08-11.1-4.12-15.04,5.87-2.28,15.25,7.53,18.36,11.51"/>
          <path class="cls-3" d="M203.63,534.24c2.37,10.57-10.96,15.4-21.94,7.96-.68-.46-2.74-1.86-4.48-4.48-1.71-2.58-1.56-5.1-1.51-5.93.26-4.27-1.68-7.64-3.36-9.71-.82-1.01-2.67-3.01-5.87-4.94-3.03-1.84-7.26-5.02-8.98-11.41-.92-3.44-1.8-11.94,10.01-16.38,10.57-1.6,16.03,2.98,18.34,5.85,1.25,1.55,2.63,3.85,3.46,5.66,2.96,6.49-2.23,13.86,2.18,20.19,3.45,4.95,10.64,6.45,12.14,13.18"/>
          <path class="cls-3" d="M299.99,460.1c-.22,7.65-5.32,13.8-6.46,21.17-.73,4.75,1.65,9.32.8,14.07-.46,2.59-1.21,4.64-1.61,5.63-4.18,10.27-11.77,17.46-15.32,14.53-1.29-1.07-1.26-2.97-2.56-4.03-.62-.5-1.98-.59-2.81-.35-.96.28-2.56.74-4.76,2.68-2.03,1.8-3.29,4.25-5.21,6.14-4.23,4.18-10.87,5.28-11.64-2.52-.41-4.19,4.07-11.65,10.16-12.58,3.86-.59,7.09,3.82,11.18,1.41,5.64-3.32,7.21-9.72,10.98-14.46,4.4-5.51,5.54-13.03,2.6-17.1-4.39-6.09-3.9-20.85,4.98-26.87,8.29-2.69,9.78,7.94,9.66,12.26"/>
          <path class="cls-3" d="M306.36,490.69c-3.46,9.1-9,17.77-10.23,15.99-1.69-2.45,5.32-24.99,11.16-29.95,3.62-2.12,1.13,7.52,1.03,7.93-.49,1.88-1.15,3.9-1.96,6.03"/>
          <path class="cls-3" d="M169.25,542.55c2.72,3.62,2.44,5.91,2.32,6.89-.37,3.06,3.63,5.35,5.37,6.19,4.07,1.96,8.58,2.79,12.6,4.87,5.77,2.99,5.71,4.13,5.69,4.62-1.89,1.51-10.01.59-15.01-.4-.9-.18-2.08-.47-2.96-.7-7.38-1.96-13.34-7.1-20.66-9.21-2.99-.86-6.63-1.52-6.95.24-.3,1.67-4.9.58-7.73-.49-13.92-5.29-24.8-15.47-23.47-18.62.28-.66,1.43-.92,2.12-1.07,6.8.23,11.8,6.17,18.76,5.89.05,0,.1-.01.16-.02,2-.4,2.71-1.17,2.83-3.07.32-5.47,6.87-5.23,7.61-5.18,11.98.73,18.61,9.11,19.32,10.07"/>
          <path class="cls-3" d="M260.46,539.61c-1.5,2.2-5.62,6.91-10.49,9.02-2.84,1.23-5.05-2.16-7.88-1.07-5.18,2.16-7.51,8.92-14.13,8.75-5.88-.15-9.54-4.59-7.67-9.32,2.54-6.42,3.4-8.58-1.46-11.14-13.21-6.98-7.48-17.7,2.11-21.73,14-3.09,17.97,7.82,12.94,16.05-2.02,3.3-2.1,6.22-.26,8.68.04.05,4.08,4.77,9.27,3.34.05-.02.1-.03.15-.05,5.59-2.25,7.76-8.84,13.63-10.74,6.36-2.05,6.59,1.86,5.73,4.5-.39,1.19-1.23,2.67-1.94,3.71"/>
        </g>
      </g>
    </g>
  </g>
  <text class="cls-2" transform="translate(369.62 424.56)"><tspan x="0" y="0">TOMOKINTA</tspan><tspan x="0" y="112.3">LEAGUE</tspan></text>
  <text class="cls-1" transform="translate(854.37 536.86)"><tspan x="0" y="0">TM</tspan></text>
</svg>